<?xml version="1.0" encoding="iso-8859-1"?><!DOCTYPE svg PUBLIC "-//W3C//DTD SVG 1.1//EN" "http://www.w3.org/Graphics/SVG/1.1/DTD/svg11.dtd"><svg width="2202" height="22" viewBox="0 0 2202 22" xmlns="http://www.w3.org/2000/svg" xmlns:xlink="http://www.w3.org/1999/xlink"><svg width="22" height="22" viewBox="-4 -4 22 22" id="action-black"><path d="M9 5v3l5-4-5-4v3s-5 0-5 7c2-5 5-5 5-5zm2 7H2V5h1l2-2H0v11h13V7l-2 2v3z"/></svg><svg width="22" height="22" viewBox="-4 -4 22 22" id="action-white" x="22"><path d="M9 5v3l5-4-5-4v3s-5 0-5 7c2-5 5-5 5-5zm2 7H2V5h1l2-2H0v11h13V7l-2 2v3z" fill="#fff"/></svg><svg width="22" height="22" viewBox="-4 -4 22 22" id="alert-black" x="44"><path d="M7 0L0 12h14L7 0zm0 11a1 1 0 1 1 0-2 1 1 0 1 1 0 2zm0-3a1 1 0 0 1-1-1V5a1 1 0 1 1 2 0v2a1 1 0 0 1-1 1z"/></svg><svg width="22" height="22" viewBox="-4 -4 22 22" id="alert-white" x="66"><path d="M7 0L0 12h14L7 0zm0 11a1 1 0 1 1 0-2 1 1 0 1 1 0 2zm0-3a1 1 0 0 1-1-1V5a1 1 0 1 1 2 0v2a1 1 0 0 1-1 1z" fill="#fff"/></svg><svg width="22" height="22" viewBox="-4 -4 22 22" id="arrow-d-black" x="88"><path d="M9 7V0H5v7H0l7 7 7-7z"/></svg><svg width="22" height="22" viewBox="-4 -4 22 22" id="arrow-d-l-black" x="110"><path d="M14 3l-3-3-7.5 7.5L0 4v10h10l-3.5-3.5z"/></svg><svg width="22" height="22" viewBox="-4 -4 22 22" id="arrow-d-l-white" x="132"><path fill="#FFF" d="M14 3l-3-3-7.5 7.5L0 4v10h10l-3.5-3.5z"/></svg><svg width="22" height="22" viewBox="-4 -4 22 22" id="arrow-d-r-black" x="154"><path d="M10.5 7.5L3 0 0 3l7.5 7.5L4 14h10V4z"/></svg><svg width="22" height="22" viewBox="-4 -4 22 22" id="arrow-d-r-white" x="176"><path fill="#FFF" d="M10.5 7.5L3 0 0 3l7.5 7.5L4 14h10V4z"/></svg><svg width="22" height="22" viewBox="-4 -4 22 22" id="arrow-d-white" x="198"><path fill="#FFF" d="M9 7V0H5v7H0l7 7 7-7z"/></svg><svg width="22" height="22" viewBox="-4 -4 22 22" id="arrow-l-black" x="220"><path d="M7 5V0L0 7l7 7V9h7V5z"/></svg><svg width="22" height="22" viewBox="-4 -4 22 22" id="arrow-l-white" x="242"><path fill="#FFF" d="M7 5V0L0 7l7 7V9h7V5z"/></svg><svg width="22" height="22" viewBox="-4 -4 22 22" id="arrow-r-black" x="264"><path d="M14 7L7 0v5H0v4h7v5z"/></svg><svg width="22" height="22" viewBox="-4 -4 22 22" id="arrow-r-white" x="286"><path fill="#FFF" d="M14 7L7 0v5H0v4h7v5z"/></svg><svg width="22" height="22" viewBox="-4 -4 22 22" id="arrow-u-black" x="308"><path d="M7 0L0 7h5v7h4V7h5z"/></svg><svg width="22" height="22" viewBox="-4 -4 22 22" id="arrow-u-l-black" x="330"><path d="M14 11L6.5 3.5 10 0H0v10l3.5-3.5L11 14z"/></svg><svg width="22" height="22" viewBox="-4 -4 22 22" id="arrow-u-l-white" x="352"><path fill="#FFF" d="M14 11L6.5 3.5 10 0H0v10l3.5-3.5L11 14z"/></svg><svg width="22" height="22" viewBox="-4 -4 22 22" id="arrow-u-r-black" x="374"><path d="M14 0H4l3.5 3.5L0 11l3 3 7.5-7.5L14 10z"/></svg><svg width="22" height="22" viewBox="-4 -4 22 22" id="arrow-u-r-white" x="396"><path fill="#FFF" d="M14 0H4l3.5 3.5L0 11l3 3 7.5-7.5L14 10z"/></svg><svg width="22" height="22" viewBox="-4 -4 22 22" id="arrow-u-white" x="418"><path fill="#FFF" d="M7 0L0 7h5v7h4V7h5z"/></svg><svg width="22.02" height="22" viewBox="-4 -4 22.02 22" id="audio-black" x="440"><path d="M1 4a1 1 0 0 0-1 1v4a1 1 0 0 0 1 1h1l4 4V0L2 4H1zm9.346 3c0-1.699-1.042-3.154-2.546-3.867L6.982 4.68C7.885 5.107 8.51 5.98 8.51 7s-.625 1.893-1.528 2.32l.818 1.547c1.504-.713 2.546-2.168 2.546-3.867zM9.447.017l-.829 1.569c2.105.998 3.564 3.035 3.564 5.414s-1.459 4.416-3.563 5.414l.829 1.569c2.707-1.283 4.57-3.925 4.57-6.983S12.154 1.3 9.447.017z"/></svg><svg width="22.02" height="22" viewBox="-4 -4 22.02 22" id="audio-white" x="463"><path fill="#FFF" d="M1 4a1 1 0 0 0-1 1v4a1 1 0 0 0 1 1h1l4 4V0L2 4H1zm9.346 3c0-1.699-1.042-3.154-2.546-3.867L6.982 4.68C7.885 5.107 8.51 5.98 8.51 7s-.625 1.893-1.528 2.32l.818 1.547c1.504-.713 2.546-2.168 2.546-3.867zM9.447.017l-.829 1.569c2.105.998 3.564 3.035 3.564 5.414s-1.459 4.416-3.563 5.414l.829 1.569c2.707-1.283 4.57-3.925 4.57-6.983S12.154 1.3 9.447.017z"/></svg><svg width="22" height="22" viewBox="-4 -4 22 22" id="back-black" x="486"><path d="M5 3V0L1 4l4 4V5s6 0 6 3-5 4-5 4v2s7-1 7-6c0-4-5-5-8-5z"/></svg><svg width="22" height="22" viewBox="-4 -4 22 22" id="back-white" x="508"><path d="M5 3V0L1 4l4 4V5s6 0 6 3-5 4-5 4v2s7-1 7-6c0-4-5-5-8-5z" fill="#fff"/></svg><svg width="22" height="22" viewBox="-4 -4 22 22" id="bars-black" x="530"><path d="M1 4h12a1 1 0 1 0 0-2H1a1 1 0 1 0 0 2zm12 2H1a1 1 0 1 0 0 2h12a1 1 0 1 0 0-2zm0 4H1a1 1 0 1 0 0 2h12a1 1 0 1 0 0-2z"/></svg><svg width="22" height="22" viewBox="-4 -4 22 22" id="bars-white" x="552"><path d="M1 4h12a1 1 0 1 0 0-2H1a1 1 0 1 0 0 2zm12 2H1a1 1 0 1 0 0 2h12a1 1 0 1 0 0-2zm0 4H1a1 1 0 1 0 0 2h12a1 1 0 1 0 0-2z" fill="#fff"/></svg><svg width="22" height="22" viewBox="-4 -4 22 22" id="bullets-black" x="574"><path d="M5 4h8a1 1 0 1 0 0-2H5a1 1 0 1 0 0 2zm8 2H5a1 1 0 1 0 0 2h8a1 1 0 1 0 0-2zm0 4H5a1 1 0 1 0 0 2h8a1 1 0 1 0 0-2zM1 2a1 1 0 1 0 0 2 1 1 0 1 0 0-2zm0 4a1 1 0 1 0 0 2 1 1 0 1 0 0-2zm0 4a1 1 0 1 0 0 2 1 1 0 1 0 0-2z"/></svg><svg width="22" height="22" viewBox="-4 -4 22 22" id="bullets-white" x="596"><path d="M5 4h8a1 1 0 1 0 0-2H5a1 1 0 1 0 0 2zm8 2H5a1 1 0 1 0 0 2h8a1 1 0 1 0 0-2zm0 4H5a1 1 0 1 0 0 2h8a1 1 0 1 0 0-2zM1 2a1 1 0 1 0 0 2 1 1 0 1 0 0-2zm0 4a1 1 0 1 0 0 2 1 1 0 1 0 0-2zm0 4a1 1 0 1 0 0 2 1 1 0 1 0 0-2z" fill="#fff"/></svg><svg width="22" height="22" viewBox="-4 -4 22 22" id="calendar-black" x="618"><path d="M0 8h2V6H0v2zm3 0h2V6H3v2zm3 0h2V6H6v2zm3 0h2V6H9v2zm3 0h2V6h-2v2zM0 11h2V9H0v2zm3 0h2V9H3v2zm3 0h2V9H6v2zm3 0h2V9H9v2zm3 0h2V9h-2v2zM0 14h2v-2H0v2zm3 0h2v-2H3v2zm3 0h2v-2H6v2zm3 0h2v-2H9v2zm3-13a1 1 0 1 0-2 0H4a1 1 0 1 0-2 0H0v4h14V1h-2z"/></svg><svg width="22" height="22" viewBox="-4 -4 22 22" id="calendar-white" x="640"><path fill="#FFF" d="M0 8h2V6H0v2zm3 0h2V6H3v2zm3 0h2V6H6v2zm3 0h2V6H9v2zm3 0h2V6h-2v2zM0 11h2V9H0v2zm3 0h2V9H3v2zm3 0h2V9H6v2zm3 0h2V9H9v2zm3 0h2V9h-2v2zM0 14h2v-2H0v2zm3 0h2v-2H3v2zm3 0h2v-2H6v2zm3 0h2v-2H9v2zm3-13a1 1 0 1 0-2 0H4a1 1 0 1 0-2 0H0v4h14V1h-2z"/></svg><svg width="22" height="22" viewBox="-4 -4 22 22" id="camera-black" x="662"><path d="M12 2.5H9.908c-.206-.581-.756-1-1.408-1h-3c-.652 0-1.202.419-1.408 1H2a2 2 0 0 0-2 2v6a2 2 0 0 0 2 2h10a2 2 0 0 0 2-2v-6a2 2 0 0 0-2-2zm-5 8a3 3 0 1 1 0-6 3 3 0 0 1 0 6zm0-5a2 2 0 1 0 .001 4.001A2 2 0 0 0 7 5.5z"/></svg><svg width="22" height="22" viewBox="-4 -4 22 22" id="camera-white" x="684"><path d="M12 2.5H9.908c-.206-.581-.756-1-1.408-1h-3c-.652 0-1.202.419-1.408 1H2a2 2 0 0 0-2 2v6a2 2 0 0 0 2 2h10a2 2 0 0 0 2-2v-6a2 2 0 0 0-2-2zm-5 8a3 3 0 1 1 0-6 3 3 0 0 1 0 6zm0-5a2 2 0 1 0 .001 4.001A2 2 0 0 0 7 5.5z" fill="#fff"/></svg><svg width="22" height="22" viewBox="-4 -4 22 22" id="carat-d-black" x="706"><path d="M11.949 3.404L7 8.354l-4.95-4.95-2.121 2.121L7 12.596l7.07-7.071z"/></svg><svg width="22" height="22" viewBox="-4 -4 22 22" id="carat-d-white" x="728"><path fill="#fff" d="M11.949 3.404L7 8.354l-4.95-4.95-2.121 2.121L7 12.596l7.07-7.071z"/></svg><svg width="22" height="22" viewBox="-4 -4 22 22" id="carat-l-black" x="750"><path d="M10.596 11.949L5.646 7l4.95-4.95L8.475-.071 1.404 7l7.071 7.07z"/></svg><svg width="22" height="22" viewBox="-4 -4 22 22" id="carat-l-white" x="772"><path fill="#fff" d="M10.596 11.949L5.646 7l4.95-4.95L8.475-.071 1.404 7l7.071 7.07z"/></svg><svg width="22" height="22" viewBox="-4 -4 22 22" id="carat-r-black" x="794"><path d="M3.404 2.051L8.354 7l-4.95 4.95 2.121 2.12L12.596 7 5.525-.071z"/></svg><svg width="22" height="22" viewBox="-4 -4 22 22" id="carat-r-white" x="816"><path fill="#fff" d="M3.404 2.051L8.354 7l-4.95 4.95 2.121 2.12L12.596 7 5.525-.071z"/></svg><svg width="22" height="22" viewBox="-4 -4 22 22" id="carat-u-black" x="838"><path d="M2.051 10.596L7 5.646l4.95 4.95 2.12-2.121L7 1.404-.071 8.475z"/></svg><svg width="22" height="22" viewBox="-4 -4 22 22" id="carat-u-white" x="860"><path fill="#fff" d="M2.051 10.596L7 5.646l4.95 4.95 2.12-2.121L7 1.404-.071 8.475z"/></svg><svg width="22" height="22" viewBox="-4 -4 22 22" id="check-black" x="882"><path d="M14 4l-3-3-5.997 5.997L3 5 0 8l4.966 5 .017-.018L5 13z"/></svg><svg width="22" height="22" viewBox="-4 -4 22 22" id="check-white" x="904"><path fill="#fff" d="M14 4l-3-3-5.997 5.997L3 5 0 8l4.966 5 .017-.018L5 13z"/></svg><svg width="22" height="22" viewBox="-4 -4 22 22" id="clock-black" x="926"><path d="M7 0a7 7 0 1 0 0 14A7 7 0 0 0 7 0zm0 12c-2.762 0-5-2.238-5-5s2.238-5 5-5 5 2.238 5 5-2.238 5-5 5zm2-6H8V4a1 1 0 1 0-2 0v3a1 1 0 0 0 1 1h2a1 1 0 1 0 0-2z"/></svg><svg width="22" height="22" viewBox="-4 -4 22 22" id="clock-white" x="948"><path fill="#FFF" d="M7 0a7 7 0 1 0 0 14A7 7 0 0 0 7 0zm0 12c-2.762 0-5-2.238-5-5s2.238-5 5-5 5 2.238 5 5-2.238 5-5 5zm2-6H8V4a1 1 0 1 0-2 0v3a1 1 0 0 0 1 1h2a1 1 0 1 0 0-2z"/></svg><svg width="22" height="22" viewBox="-4 -4 22 22" id="cloud-black" x="970"><path d="M14 9.5c0-.793-.465-1.473-1.134-1.795.083-.221.134-.456.134-.705a2 2 0 0 0-2-2c-.158 0-.311.023-.457.058C9.816 3.549 8.286 2.5 6.5 2.5c-2.33 0-4.224 1.777-4.454 4.046A2.496 2.496 0 0 0 0 9a2.5 2.5 0 0 0 2.5 2.5h10v-.07A1.996 1.996 0 0 0 14 9.5z"/></svg><svg width="22" height="22" viewBox="-4 -4 22 22" id="cloud-white" x="992"><path d="M14 9.5c0-.793-.465-1.473-1.134-1.795.083-.221.134-.456.134-.705a2 2 0 0 0-2-2c-.158 0-.311.023-.457.058C9.816 3.549 8.286 2.5 6.5 2.5c-2.33 0-4.224 1.777-4.454 4.046A2.496 2.496 0 0 0 0 9a2.5 2.5 0 0 0 2.5 2.5h10v-.07A1.996 1.996 0 0 0 14 9.5z" fill="#fff"/></svg><svg width="22" height="22" viewBox="-4 -4 22 22" id="comment-black" x="1014"><path d="M12 0H2a2 2 0 0 0-2 2v7a2 2 0 0 0 2 2h1v3l3-3h6a2 2 0 0 0 2-2V2a2 2 0 0 0-2-2z"/></svg><svg width="22" height="22" viewBox="-4 -4 22 22" id="comment-white" x="1036"><path fill="#FFF" d="M12 0H2a2 2 0 0 0-2 2v7a2 2 0 0 0 2 2h1v3l3-3h6a2 2 0 0 0 2-2V2a2 2 0 0 0-2-2z"/></svg><svg width="22" height="22" viewBox="-4 -4 22 22" id="delete-black" x="1058"><path d="M14 3l-3-3-4 4-4-4-3 3 4 4-4 4 3 3 4-4 4 4 3-3-4-4z"/></svg><svg width="22" height="22" viewBox="-4 -4 22 22" id="delete-white" x="1080"><path fill="#FFF" d="M14 3l-3-3-4 4-4-4-3 3 4 4-4 4 3 3 4-4 4 4 3-3-4-4z"/></svg><svg width="22" height="22" viewBox="-4 -4 22 22" id="edit-black" x="1102"><path d="M1 10l-1 4 4-1 7-7-3-3-7 7zM11 0L9 2l3 3 2-2-3-3z"/></svg><svg width="22" height="22" viewBox="-4 -4 22 22" id="edit-white" x="1124"><path fill="#FFF" d="M1 10l-1 4 4-1 7-7-3-3-7 7zM11 0L9 2l3 3 2-2-3-3z"/></svg><svg width="22" height="22" viewBox="-4 -4 22 22" id="eye-black" x="1146"><path d="M7 2C3 2 0 7 0 7s3 5 7 5 7-5 7-5-3-5-7-5zm0 8a3 3 0 1 1 0-6 3 3 0 0 1 0 6zm0-4a1 1 0 1 0 0 2 1 1 0 0 0 0-2z"/></svg><svg width="22" height="22" viewBox="-4 -4 22 22" id="eye-white" x="1168"><path d="M7 2C3 2 0 7 0 7s3 5 7 5 7-5 7-5-3-5-7-5zm0 8a3 3 0 1 1 0-6 3 3 0 0 1 0 6zm0-4a1 1 0 1 0 0 2 1 1 0 0 0 0-2z" fill="#fff"/></svg><svg width="22" height="22" viewBox="-4 -4 22 22" id="forbidden-black" x="1190"><path d="M12.601 11.187A6.961 6.961 0 0 0 14 7a7 7 0 0 0-7-7 6.961 6.961 0 0 0-4.187 1.399l-.056-.056-.704.705-.005.005-.705.705.056.056A6.956 6.956 0 0 0 0 7a7 7 0 0 0 7 7 6.961 6.961 0 0 0 4.187-1.399l.056.057.705-.705.005-.005.705-.705-.057-.056zM7 2a5 5 0 0 1 5 5 4.964 4.964 0 0 1-.832 2.754L4.246 2.832A4.964 4.964 0 0 1 7 2zm0 10a5 5 0 0 1-5-5c0-1.019.308-1.964.832-2.754l6.922 6.922A4.964 4.964 0 0 1 7 12z"/></svg><svg width="22" height="22" viewBox="-4 -4 22 22" id="forbidden-white" x="1212"><path fill="#FFF" d="M12.601 11.187A6.961 6.961 0 0 0 14 7a7 7 0 0 0-7-7 6.961 6.961 0 0 0-4.187 1.399l-.056-.056-.704.705-.005.005-.705.705.056.056A6.956 6.956 0 0 0 0 7a7 7 0 0 0 7 7 6.961 6.961 0 0 0 4.187-1.399l.056.057.705-.705.005-.005.705-.705-.057-.056zM7 2a5 5 0 0 1 5 5 4.964 4.964 0 0 1-.832 2.754L4.246 2.832A4.964 4.964 0 0 1 7 2zm0 10a5 5 0 0 1-5-5c0-1.019.308-1.964.832-2.754l6.922 6.922A4.964 4.964 0 0 1 7 12z"/></svg><svg width="22" height="22" viewBox="-4 -4 22 22" id="forward-black" x="1234"><path d="M13 4L9 0v3C6 3 1 4 1 8c0 5 7 6 7 6v-2s-5-1-5-4 6-3 6-3v3l4-4z"/></svg><svg width="22" height="22" viewBox="-4 -4 22 22" id="forward-white" x="1256"><path d="M13 4L9 0v3C6 3 1 4 1 8c0 5 7 6 7 6v-2s-5-1-5-4 6-3 6-3v3l4-4z" fill="#fff"/></svg><svg width="22" height="22" viewBox="-4 -4 22 22" id="gear-black" x="1278"><path d="M13.621 5.904l-1.036-.259a.5.5 0 0 1-.355-.332 5.522 5.522 0 0 0-.339-.82.498.498 0 0 1 .017-.486l.549-.915a.498.498 0 0 0-.075-.61l-.862-.863a.5.5 0 0 0-.611-.075l-.916.55a.505.505 0 0 1-.487.015 5.46 5.46 0 0 0-.82-.339.498.498 0 0 1-.332-.354L8.095.379A.5.5 0 0 0 7.609 0H6.391a.5.5 0 0 0-.485.379l-.26 1.036a.499.499 0 0 1-.333.355 5.526 5.526 0 0 0-.82.34.503.503 0 0 1-.486-.017l-.915-.549a.5.5 0 0 0-.61.075l-.863.862a.502.502 0 0 0-.075.612l.549.914a.503.503 0 0 1 .017.486 5.332 5.332 0 0 0-.34.821.503.503 0 0 1-.354.332l-1.037.259A.5.5 0 0 0 0 6.391V7.61a.5.5 0 0 0 .379.485l1.036.26a.497.497 0 0 1 .355.332c.092.284.205.559.34.82a.503.503 0 0 1-.017.486l-.549.915a.5.5 0 0 0 .075.61l.862.862a.498.498 0 0 0 .61.075l.915-.549a.503.503 0 0 1 .486-.017c.262.135.536.248.82.34a.498.498 0 0 1 .332.354l.259 1.036A.502.502 0 0 0 6.39 14h1.22a.5.5 0 0 0 .485-.379l.259-1.036a.5.5 0 0 1 .333-.354c.284-.092.559-.205.82-.34a.503.503 0 0 1 .486.017l.914.549a.5.5 0 0 0 .611-.074l.862-.863a.5.5 0 0 0 .075-.611l-.549-.915a.499.499 0 0 1-.017-.485c.134-.263.248-.536.339-.82a.502.502 0 0 1 .355-.333l1.036-.259A.504.504 0 0 0 14 7.609V6.39a.5.5 0 0 0-.379-.486zM7 10a3 3 0 1 1 0-6 3 3 0 0 1 0 6z"/></svg><svg width="22" height="22" viewBox="-4 -4 22 22" id="gear-white" x="1300"><path fill="#FFF" d="M13.621 5.904l-1.036-.259a.5.5 0 0 1-.355-.332 5.522 5.522 0 0 0-.339-.82.498.498 0 0 1 .017-.486l.549-.915a.498.498 0 0 0-.075-.61l-.862-.863a.5.5 0 0 0-.611-.075l-.916.55a.505.505 0 0 1-.487.015 5.46 5.46 0 0 0-.82-.339.498.498 0 0 1-.332-.354L8.095.379A.5.5 0 0 0 7.609 0H6.391a.5.5 0 0 0-.485.379l-.26 1.036a.499.499 0 0 1-.333.355 5.526 5.526 0 0 0-.82.34.503.503 0 0 1-.486-.017l-.915-.549a.5.5 0 0 0-.61.075l-.863.862a.502.502 0 0 0-.075.612l.549.914a.503.503 0 0 1 .017.486 5.332 5.332 0 0 0-.34.821.503.503 0 0 1-.354.332l-1.037.259A.5.5 0 0 0 0 6.391V7.61a.5.5 0 0 0 .379.485l1.036.26a.497.497 0 0 1 .355.332c.092.284.205.559.34.82a.503.503 0 0 1-.017.486l-.549.915a.5.5 0 0 0 .075.61l.862.862a.498.498 0 0 0 .61.075l.915-.549a.503.503 0 0 1 .486-.017c.262.135.536.248.82.34a.498.498 0 0 1 .332.354l.259 1.036A.502.502 0 0 0 6.39 14h1.22a.5.5 0 0 0 .485-.379l.259-1.036a.5.5 0 0 1 .333-.354c.284-.092.559-.205.82-.34a.503.503 0 0 1 .486.017l.914.549a.5.5 0 0 0 .611-.074l.862-.863a.5.5 0 0 0 .075-.611l-.549-.915a.499.499 0 0 1-.017-.485c.134-.263.248-.536.339-.82a.502.502 0 0 1 .355-.333l1.036-.259A.504.504 0 0 0 14 7.609V6.39a.5.5 0 0 0-.379-.486zM7 10a3 3 0 1 1 0-6 3 3 0 0 1 0 6z"/></svg><svg width="22" height="22" viewBox="-4 -4 22 22" id="grid-black" x="1322"><path d="M3 0H1a1 1 0 0 0-1 1v2a1 1 0 0 0 1 1h2a1 1 0 0 0 1-1V1a1 1 0 0 0-1-1zm5 0H6a1 1 0 0 0-1 1v2a1 1 0 0 0 1 1h2a1 1 0 0 0 1-1V1a1 1 0 0 0-1-1zm5 0h-2a1 1 0 0 0-1 1v2a1 1 0 0 0 1 1h2a1 1 0 0 0 1-1V1a1 1 0 0 0-1-1zM3 5H1a1 1 0 0 0-1 1v2a1 1 0 0 0 1 1h2a1 1 0 0 0 1-1V6a1 1 0 0 0-1-1zm5 0H6a1 1 0 0 0-1 1v2a1 1 0 0 0 1 1h2a1 1 0 0 0 1-1V6a1 1 0 0 0-1-1zm5 0h-2a1 1 0 0 0-1 1v2a1 1 0 0 0 1 1h2a1 1 0 0 0 1-1V6a1 1 0 0 0-1-1zM3 10H1a1 1 0 0 0-1 1v2a1 1 0 0 0 1 1h2a1 1 0 0 0 1-1v-2a1 1 0 0 0-1-1zm5 0H6a1 1 0 0 0-1 1v2a1 1 0 0 0 1 1h2a1 1 0 0 0 1-1v-2a1 1 0 0 0-1-1zm5 0h-2a1 1 0 0 0-1 1v2a1 1 0 0 0 1 1h2a1 1 0 0 0 1-1v-2a1 1 0 0 0-1-1z"/></svg><svg width="22" height="22" viewBox="-4 -4 22 22" id="grid-white" x="1344"><path fill="#FFF" d="M3 0H1a1 1 0 0 0-1 1v2a1 1 0 0 0 1 1h2a1 1 0 0 0 1-1V1a1 1 0 0 0-1-1zm5 0H6a1 1 0 0 0-1 1v2a1 1 0 0 0 1 1h2a1 1 0 0 0 1-1V1a1 1 0 0 0-1-1zm5 0h-2a1 1 0 0 0-1 1v2a1 1 0 0 0 1 1h2a1 1 0 0 0 1-1V1a1 1 0 0 0-1-1zM3 5H1a1 1 0 0 0-1 1v2a1 1 0 0 0 1 1h2a1 1 0 0 0 1-1V6a1 1 0 0 0-1-1zm5 0H6a1 1 0 0 0-1 1v2a1 1 0 0 0 1 1h2a1 1 0 0 0 1-1V6a1 1 0 0 0-1-1zm5 0h-2a1 1 0 0 0-1 1v2a1 1 0 0 0 1 1h2a1 1 0 0 0 1-1V6a1 1 0 0 0-1-1zM3 10H1a1 1 0 0 0-1 1v2a1 1 0 0 0 1 1h2a1 1 0 0 0 1-1v-2a1 1 0 0 0-1-1zm5 0H6a1 1 0 0 0-1 1v2a1 1 0 0 0 1 1h2a1 1 0 0 0 1-1v-2a1 1 0 0 0-1-1zm5 0h-2a1 1 0 0 0-1 1v2a1 1 0 0 0 1 1h2a1 1 0 0 0 1-1v-2a1 1 0 0 0-1-1z"/></svg><svg width="22" height="22" viewBox="-4 -4 22 22" id="heart-black" x="1366"><path d="M7 1.958c-2-3-7-2.128-7 1.872 0 3 4 7 4 7s2.417 2.48 3 3c.583-.52 3-3 3-3s4-4 4-7c0-3.999-5-4.872-7-1.872z"/></svg><svg width="22" height="22" viewBox="-4 -4 22 22" id="heart-white" x="1388"><path d="M7 1.872c-2-3-7-2-7 2 0 3 4 7 4 7s2.417 2.479 3 3c.583-.521 3-3 3-3s4-4 4-7c0-4-5-5-7-2z" fill="#fff"/></svg><svg width="22" height="22" viewBox="-4 -4 22 22" id="home-black" x="1410"><path d="M7 0L0 7h2v7h3V9h4v5h3V7h2z"/></svg><svg width="22" height="22" viewBox="-4 -4 22 22" id="home-white" x="1432"><path fill="#FFF" d="M7 0L0 7h2v7h3V9h4v5h3V7h2z"/></svg><svg width="22" height="22" viewBox="-4 -4 22 22" id="info-black" x="1454"><path d="M7 0a7 7 0 1 0 0 14A7 7 0 0 0 7 0zm0 2a1 1 0 1 1 0 2 1 1 0 0 1 0-2zm2 9H5v-1h1V6H5V5h3v5h1v1z"/></svg><svg width="22" height="22" viewBox="-4 -4 22 22" id="info-white" x="1476"><path fill="#FFF" d="M7 0a7 7 0 1 0 0 14A7 7 0 0 0 7 0zm0 2a1 1 0 1 1 0 2 1 1 0 0 1 0-2zm2 9H5v-1h1V6H5V5h3v5h1v1z"/></svg><svg width="22" height="22" viewBox="-4 -4 22 22" id="location-black" x="1498"><path d="M7 0a4 4 0 0 0-4 4c0 2 4 10 4 10s4-8 4-10a4 4 0 0 0-4-4zm0 6a2 2 0 1 1 .001-4.001A2 2 0 0 1 7 6z"/></svg><svg width="22" height="22" viewBox="-4 -4 22 22" id="location-white" x="1520"><path d="M7 0a4 4 0 0 0-4 4c0 2 4 10 4 10s4-8 4-10a4 4 0 0 0-4-4zm0 6a2 2 0 1 1 .001-4.001A2 2 0 0 1 7 6z" fill="#fff"/></svg><svg width="22" height="22" viewBox="-4 -4 22 22" id="lock-black" x="1542"><path d="M12 6V5A5 5 0 1 0 2 5v1H1v8h12V6h-1zM7.5 9.848V12h-1V9.848A.99.99 0 0 1 6 9a1 1 0 1 1 2 0 .99.99 0 0 1-.5.848zM10 6H4V5a3 3 0 1 1 6 0v1z"/></svg><svg width="22" height="22" viewBox="-4 -4 22 22" id="lock-white" x="1564"><path d="M12 6V5A5 5 0 1 0 2 5v1H1v8h12V6h-1zM7.5 9.848V12h-1V9.848A.99.99 0 0 1 6 9a1 1 0 1 1 2 0 .99.99 0 0 1-.5.848zM10 6H4V5a3 3 0 1 1 6 0v1z" fill="#fff"/></svg><svg width="22" height="22" viewBox="-4 -4 22 22" id="mail-black" x="1586"><path d="M0 3.75V12h14V3.75L7 9 0 3.75zM14 2H0l7 5 7-5z"/></svg><svg width="22" height="22" viewBox="-4 -4 22 22" id="mail-white" x="1608"><path d="M0 3.75V12h14V3.75L7 9 0 3.75zM14 2H0l7 5 7-5z" fill="#fff"/></svg><svg width="22" height="22" viewBox="-4 -4 22 22" id="minus-black" x="1630"><path d="M0 5h14v4H0z"/></svg><svg width="22" height="22" viewBox="-4 -4 22 22" id="minus-white" x="1652"><path fill="#fff" d="M0 5h14v4H0z"/></svg><svg width="22" height="22" viewBox="-4 -4 22 22" id="navigation-black" x="1674"><path d="M13 1L0 6l7 1 1 7z"/></svg><svg width="22" height="22" viewBox="-4 -4 22 22" id="navigation-white" x="1696"><path fill="#fff" d="M13 1L0 6l7 1 1 7z"/></svg><svg width="22" height="22" viewBox="-4 -4 22 22" id="phone-black" x="1718"><path d="M6.949 9.182a17.183 17.183 0 0 1-2.442-2.446c-.544-.673-1.024-1.381-.528-1.878L.497 1.378c-.508.634-1.633 3.654 3.188 8.598 5.08 5.211 8.356 4.097 8.92 3.511l-3.396-3.399c-.475.473-1.086.051-2.26-.906zm6.881 2.33v-.004l-2.649-2.647a.53.53 0 0 0-.754.002l-.962.96 3.402 3.407s.963-.961.961-.961l.002-.002a.528.528 0 0 0 0-.755zM5.202 3.636v-.002a.533.533 0 0 0 0-.758v-.003L2.475.147a.532.532 0 0 0-.753.001l-.961.965L4.24 4.595c.001.001.962-.958.962-.959z"/></svg><svg width="22" height="22" viewBox="-4.01 -3.99 22 22" id="phone-white" x="1740"><path d="M6.939 9.189a17.12 17.12 0 0 1-2.442-2.445c-.544-.673-1.024-1.381-.528-1.878L.487 1.386c-.508.634-1.633 3.654 3.188 8.598 5.08 5.211 8.356 4.097 8.92 3.511l-3.396-3.4c-.474.473-1.086.051-2.26-.906zm6.881 2.33v-.004l-2.649-2.647a.532.532 0 0 0-.754.002l-.962.961 3.403 3.407s.962-.96.961-.961l.002-.001a.53.53 0 0 0-.001-.757zM5.192 3.644v-.002a.533.533 0 0 0 0-.758v-.003L2.465.155a.532.532 0 0 0-.753.001l-.961.965L4.23 4.603c.001.001.962-.958.962-.959z" fill="#fff"/></svg><svg width="22" height="22" viewBox="-4 -4 22 22" id="plus-black" x="1762"><path d="M14 5H9V0H5v5H0v4h5v5h4V9h5z"/></svg><svg width="22" height="22" viewBox="-4 -4 22 22" id="plus-white" x="1784"><path fill="#FFF" d="M14 5H9V0H5v5H0v4h5v5h4V9h5z"/></svg><svg width="22" height="22" viewBox="-4 -4 22 22" id="power-black" x="1806"><path d="M11.243 2.408a.983.983 0 0 0-1.415 0 1.049 1.049 0 0 0 0 1.455C10.584 4.642 11 5.675 11 6.773s-.416 2.133-1.172 2.91c-1.512 1.558-4.145 1.558-5.656 0A4.15 4.15 0 0 1 3 6.773c0-1.1.416-2.133 1.172-2.91.39-.401.39-1.054 0-1.455a.983.983 0 0 0-1.415 0A6.226 6.226 0 0 0 1 6.773c0 1.647.624 3.199 1.757 4.365A5.88 5.88 0 0 0 7 12.947c1.604 0 3.109-.645 4.243-1.811A6.209 6.209 0 0 0 13 6.773a6.226 6.226 0 0 0-1.757-4.365zM7 8.053c.553 0 1-.445 1-1v-6a1 1 0 1 0-2 0v6a1 1 0 0 0 1 1z"/></svg><svg width="22" height="22" viewBox="-4 -4 22 22" id="power-white" x="1828"><path d="M11.243 2.408a.983.983 0 0 0-1.415 0 1.049 1.049 0 0 0 0 1.455C10.584 4.642 11 5.675 11 6.773s-.416 2.133-1.172 2.91c-1.512 1.558-4.145 1.558-5.656 0A4.15 4.15 0 0 1 3 6.773c0-1.1.416-2.133 1.172-2.91.39-.401.39-1.054 0-1.455a.983.983 0 0 0-1.415 0A6.226 6.226 0 0 0 1 6.773c0 1.647.624 3.199 1.757 4.365A5.88 5.88 0 0 0 7 12.947c1.604 0 3.109-.645 4.243-1.811A6.209 6.209 0 0 0 13 6.773a6.226 6.226 0 0 0-1.757-4.365zM7 8.053c.553 0 1-.445 1-1v-6a1 1 0 1 0-2 0v6a1 1 0 0 0 1 1z" fill="#fff"/></svg><svg width="22" height="22" viewBox="-4 -4 22 22" id="recycle-black" x="1850"><path d="M3 7h1L2 4 0 7h1a6 6 0 0 0 6 6c.702 0 1.374-.127 2-.35v-2.205A3.955 3.955 0 0 1 7 11a4 4 0 0 1-4-4zm10 0c0-3.313-2.688-6-6-6a5.97 5.97 0 0 0-2 .349v2.206A3.955 3.955 0 0 1 7 3a4 4 0 0 1 4 4h-1l2 3 2-3h-1z"/></svg><svg width="22" height="22" viewBox="-4 -4 22 22" id="recycle-white" x="1872"><path d="M3 7h1L2 4 0 7h1a6 6 0 0 0 6 6c.702 0 1.374-.127 2-.35v-2.205A3.955 3.955 0 0 1 7 11a4 4 0 0 1-4-4zm10 0c0-3.313-2.688-6-6-6a5.97 5.97 0 0 0-2 .349v2.206A3.955 3.955 0 0 1 7 3a4 4 0 0 1 4 4h-1l2 3 2-3h-1z" fill="#fff"/></svg><svg width="22" height="22" viewBox="-4 -4 22 22" id="refresh-black" x="1894"><path d="M14.001 6.001v-6l-2.06 2.06a6.916 6.916 0 0 0-1.44-1.122 7 7 0 1 0 2.562 9.562l-1.732-1c-1.381 2.392-4.438 3.211-6.83 1.83s-3.211-4.438-1.83-6.83 4.438-3.211 6.83-1.83c.389.225.718.506 1.02.81l-2.52 2.52h6z"/></svg><svg width="22" height="22" viewBox="-4 -4 22 22" id="refresh-white" x="1916"><path fill="#FFF" d="M14.001 6.001v-6l-2.06 2.06a6.916 6.916 0 0 0-1.44-1.122 7 7 0 1 0 2.562 9.562l-1.732-1c-1.381 2.392-4.438 3.211-6.83 1.83s-3.211-4.438-1.83-6.83 4.438-3.211 6.83-1.83c.389.225.718.506 1.02.81l-2.52 2.52h6z"/></svg><svg width="22" height="22" viewBox="-4 -4 22 22" id="search-black" x="1938"><path d="M10.171 8.766a5.457 5.457 0 0 0 .979-3.126 5.5 5.5 0 1 0-5.5 5.5 5.455 5.455 0 0 0 3.104-.962l3.684 3.683 1.414-1.414-3.681-3.681zm-4.522.374a3.5 3.5 0 1 1 0-7 3.5 3.5 0 0 1 0 7z"/></svg><svg width="22" height="22" viewBox="-4 -4 22 22" id="search-white" x="1960"><path d="M10.171 8.766a5.457 5.457 0 0 0 .979-3.126 5.5 5.5 0 1 0-5.5 5.5 5.455 5.455 0 0 0 3.104-.962l3.684 3.683 1.414-1.414-3.681-3.681zm-4.522.374a3.5 3.5 0 1 1 0-7 3.5 3.5 0 0 1 0 7z" fill="#fff"/></svg><svg width="22" height="22" viewBox="-4 -4 22 22" id="shop-black" x="1982"><path d="M10 4V3a3 3 0 1 0-6 0v1H1v10h12V4h-3zM4.5 6a.5.5 0 1 1 0-1 .5.5 0 0 1 0 1zM5 3a2 2 0 0 1 4 0v1H5V3zm4.5 3a.5.5 0 1 1 .002-1.002A.5.5 0 0 1 9.5 6z"/></svg><svg width="22" height="22" viewBox="-4 -4 22 22" id="shop-white" x="2004"><path d="M10 4V3a3 3 0 1 0-6 0v1H1v10h12V4h-3zM4.5 6a.5.5 0 1 1 0-1 .5.5 0 0 1 0 1zM5 3a2 2 0 0 1 4 0v1H5V3zm4.5 3a.5.5 0 1 1 .002-1.002A.5.5 0 0 1 9.5 6z" fill="#fff"/></svg><svg width="22" height="22" viewBox="-4 -4 22 22" id="star-black" x="2026"><path d="M14 5H9L7 0 5 5H0l4 3-1.375 5L7 10l4.375 3L10 8z"/></svg><svg width="22" height="22" viewBox="-4 -4 22 22" id="star-white" x="2048"><path fill="#fff" d="M14 5H9L7 0 5 5H0l4 3-1.375 5L7 10l4.375 3L10 8z"/></svg><svg width="22" height="22" viewBox="-4 -4 22 22" id="tag-black" x="2070"><path d="M5 0H0v5l9 9 5-5-9-9zM3 4a1 1 0 1 1 0-2 1 1 0 1 1 0 2z"/></svg><svg width="22" height="22" viewBox="-4 -4 22 22" id="tag-white" x="2092"><path fill="#FFF" d="M5 0H0v5l9 9 5-5-9-9zM3 4a1 1 0 1 1 0-2 1 1 0 1 1 0 2z"/></svg><svg width="22" height="22" viewBox="-4 -4 22 22" id="user-black" x="2114"><path d="M8.851 10.101c-.18-.399-.2-.763-.153-1.104.685-.507 1.04-1.376 1.193-2.532.602-.11.609-.498.609-.965 0-.437-.008-.804-.502-.94L10 4.5c0-2.103-1-4-2-4 0 0-.5-.5-1.5-.5C5 0 4 1.877 4 4.5l.002.06c-.494.136-.502.503-.502.94 0 .467.007.855.609.965.153 1.156.508 2.025 1.194 2.532.047.341.026.704-.153 1.104C1.503 10.503 0 12 0 12v2h14v-2s-1.503-1.497-5.149-1.899z"/></svg><svg width="22" height="22" viewBox="-4 -4 22 22" id="user-white" x="2136"><path fill="#FFF" d="M8.851 10.101c-.18-.399-.2-.763-.153-1.104.685-.507 1.04-1.376 1.193-2.532.602-.11.609-.498.609-.965 0-.437-.008-.804-.502-.94L10 4.5c0-2.103-1-4-2-4 0 0-.5-.5-1.5-.5C5 0 4 1.877 4 4.5l.002.06c-.494.136-.502.503-.502.94 0 .467.007.855.609.965.153 1.156.508 2.025 1.194 2.532.047.341.026.704-.153 1.104C1.503 10.503 0 12 0 12v2h14v-2s-1.503-1.497-5.149-1.899z"/></svg><svg width="22" height="22" viewBox="-4 -6 22 22" id="video-black" x="2158"><path d="M8 0H2a2 2 0 0 0-2 2v6a2 2 0 0 0 2 2h6a2 2 0 0 0 2-2V2a2 2 0 0 0-2-2zm2 5l4 4V1l-4 4z"/></svg><svg width="22" height="22" viewBox="-4 -6 22 22" id="video-white" x="2180"><path d="M8 0H2a2 2 0 0 0-2 2v6a2 2 0 0 0 2 2h6a2 2 0 0 0 2-2V2a2 2 0 0 0-2-2zm2 5l4 4V1l-4 4z" fill="#fff"/></svg></svg>