<?xml version="1.0" encoding="iso-8859-1"?><!DOCTYPE svg PUBLIC "-//W3C//DTD SVG 1.1//EN" "http://www.w3.org/Graphics/SVG/1.1/DTD/svg11.dtd"><svg width="2202" height="22" viewBox="0 0 2202 22" xmlns="http://www.w3.org/2000/svg" xmlns:xlink="http://www.w3.org/1999/xlink"><svg width="22" height="22" viewBox="-4 -4 22 22" id="action-black"><path d="M9 5v3l5-4-5-4v3s-5 0-5 7c2-5 5-5 5-5zm2 7H2V5h1l2-2H0v11h13V7l-2 2v3z"/></svg><svg width="22" height="22" viewBox="-4 -4 22 22" id="action-white" x="22"><path d="M9 5v3l5-4-5-4v3s-5 0-5 7c2-5 5-5 5-5zm2 7H2V5h1l2-2H0v11h13V7l-2 2v3z" fill="#FFF"/></svg><svg width="22" height="22" viewBox="-4 -4 22 22" id="alert-black" x="44"><path d="M7 0L0 12h14L7 0zm0 11a1 1 0 0 1 0-2 1 1 0 0 1 0 2zm0-3a1 1 0 0 1-1-1V5a1 1 0 0 1 2 0v2a1 1 0 0 1-1 1z"/></svg><svg width="22" height="22" viewBox="-4 -4 22 22" id="alert-white" x="66"><path d="M7 0L0 12h14L7 0zm0 11a1 1 0 0 1 0-2 1 1 0 0 1 0 2zm0-3a1 1 0 0 1-1-1V5a1 1 0 0 1 2 0v2a1 1 0 0 1-1 1z" fill="#FFF"/></svg><svg width="22" height="22" viewBox="-4 -4 22 22" id="arrow-d-black" x="88"><path d="M9 7V0H5v7H0l7 7 7-7z"/></svg><svg width="22" height="22" viewBox="-4 -4 22 22" id="arrow-d-l-black" x="110"><path d="M14 3l-3-3-7.5 7.5L0 4v10h10l-3.5-3.5z"/></svg><svg width="22" height="22" viewBox="-4 -4 22 22" id="arrow-d-l-white" x="132"><path fill="#FFF" d="M14 3l-3-3-7.5 7.5L0 4v10h10l-3.5-3.5z"/></svg><svg width="22" height="22" viewBox="-4 -4 22 22" id="arrow-d-r-black" x="154"><path d="M10.5 7.5L3 0 0 3l7.5 7.5L4 14h10V4z"/></svg><svg width="22" height="22" viewBox="-4 -4 22 22" id="arrow-d-r-white" x="176"><path fill="#FFF" d="M10.5 7.5L3 0 0 3l7.5 7.5L4 14h10V4z"/></svg><svg width="22" height="22" viewBox="-4 -4 22 22" id="arrow-d-white" x="198"><path fill="#FFF" d="M9 7V0H5v7H0l7 7 7-7z"/></svg><svg width="22" height="22" viewBox="-4 -4 22 22" id="arrow-l-black" x="220"><path d="M7 5V0L0 7l7 7V9h7V5z"/></svg><svg width="22" height="22" viewBox="-4 -4 22 22" id="arrow-l-white" x="242"><path fill="#FFF" d="M7 5V0L0 7l7 7V9h7V5z"/></svg><svg width="22" height="22" viewBox="-4 -4 22 22" id="arrow-r-black" x="264"><path d="M14 7L7 0v5H0v4h7v5z"/></svg><svg width="22" height="22" viewBox="-4 -4 22 22" id="arrow-r-white" x="286"><path fill="#FFF" d="M14 7L7 0v5H0v4h7v5z"/></svg><svg width="22" height="22" viewBox="-4 -4 22 22" id="arrow-u-black" x="308"><path d="M7 0L0 7h5v7h4V7h5z"/></svg><svg width="22" height="22" viewBox="-4 -4 22 22" id="arrow-u-l-black" x="330"><path d="M14 11L6.5 3.5 10 0H0v10l3.5-3.5L11 14z"/></svg><svg width="22" height="22" viewBox="-4 -4 22 22" id="arrow-u-l-white" x="352"><path fill="#FFF" d="M14 11L6.5 3.5 10 0H0v10l3.5-3.5L11 14z"/></svg><svg width="22" height="22" viewBox="-4 -4 22 22" id="arrow-u-r-black" x="374"><path d="M14 0H4l3.5 3.5L0 11l3 3 7.5-7.5L14 10z"/></svg><svg width="22" height="22" viewBox="-4 -4 22 22" id="arrow-u-r-white" x="396"><path fill="#FFF" d="M14 0H4l3.5 3.5L0 11l3 3 7.5-7.5L14 10z"/></svg><svg width="22" height="22" viewBox="-4 -4 22 22" id="arrow-u-white" x="418"><path fill="#FFF" d="M7 0L0 7h5v7h4V7h5z"/></svg><svg width="22.02" height="22" viewBox="-4 -4 22.02 22" id="audio-black" x="440"><path d="M1 4a1 1 0 0 0-1 1v4a1 1 0 0 0 1 1h1l4 4V0L2 4H1zm9.346 3c0-1.7-1.042-3.154-2.546-3.867L6.982 4.68C7.885 5.107 8.51 5.98 8.51 7s-.625 1.893-1.528 2.32l.818 1.547C9.304 10.154 10.346 8.7 10.346 7zm-.9-6.983l-.828 1.57c2.105.997 3.564 3.034 3.564 5.413s-1.46 4.416-3.563 5.414l.828 1.57c2.707-1.284 4.57-3.926 4.57-6.984S12.154 1.3 9.448.017z"/></svg><svg width="22.02" height="22" viewBox="-4 -4 22.02 22" id="audio-white" x="463"><path fill="#FFF" d="M1 4a1 1 0 0 0-1 1v4a1 1 0 0 0 1 1h1l4 4V0L2 4H1zm9.346 3c0-1.7-1.042-3.154-2.546-3.867L6.982 4.68C7.885 5.107 8.51 5.98 8.51 7s-.625 1.893-1.528 2.32l.818 1.547C9.304 10.154 10.346 8.7 10.346 7zm-.9-6.983l-.828 1.57c2.105.997 3.564 3.034 3.564 5.413s-1.46 4.416-3.563 5.414l.828 1.57c2.707-1.284 4.57-3.926 4.57-6.984S12.154 1.3 9.448.017z"/></svg><svg width="22" height="22" viewBox="-4 -4 22 22" id="back-black" x="486"><path d="M5 3V0L1 4l4 4V5s6 0 6 3-5 4-5 4v2s7-1 7-6c0-4-5-5-8-5z"/></svg><svg width="22" height="22" viewBox="-4 -4 22 22" id="back-white" x="508"><path d="M5 3V0L1 4l4 4V5s6 0 6 3-5 4-5 4v2s7-1 7-6c0-4-5-5-8-5z" fill="#FFF"/></svg><svg width="22" height="22" viewBox="-4 -4 22 22" id="bars-black" x="530"><path d="M1 4h12a1 1 0 0 0 0-2H1a1 1 0 0 0 0 2zm12 2H1a1 1 0 0 0 0 2h12a1 1 0 0 0 0-2zm0 4H1a1 1 0 0 0 0 2h12a1 1 0 0 0 0-2z"/></svg><svg width="22" height="22" viewBox="-4 -4 22 22" id="bars-white" x="552"><path d="M1 4h12a1 1 0 0 0 0-2H1a1 1 0 0 0 0 2zm12 2H1a1 1 0 0 0 0 2h12a1 1 0 0 0 0-2zm0 4H1a1 1 0 0 0 0 2h12a1 1 0 0 0 0-2z" fill="#FFF"/></svg><svg width="22" height="22" viewBox="-4 -4 22 22" id="bullets-black" x="574"><path d="M5 4h8a1 1 0 0 0 0-2H5a1 1 0 0 0 0 2zm8 2H5a1 1 0 0 0 0 2h8a1 1 0 0 0 0-2zm0 4H5a1 1 0 0 0 0 2h8a1 1 0 0 0 0-2zM1 2a1 1 0 0 0 0 2 1 1 0 0 0 0-2zm0 4a1 1 0 0 0 0 2 1 1 0 0 0 0-2zm0 4a1 1 0 0 0 0 2 1 1 0 0 0 0-2z"/></svg><svg width="22" height="22" viewBox="-4 -4 22 22" id="bullets-white" x="596"><path d="M5 4h8a1 1 0 0 0 0-2H5a1 1 0 0 0 0 2zm8 2H5a1 1 0 0 0 0 2h8a1 1 0 0 0 0-2zm0 4H5a1 1 0 0 0 0 2h8a1 1 0 0 0 0-2zM1 2a1 1 0 0 0 0 2 1 1 0 0 0 0-2zm0 4a1 1 0 0 0 0 2 1 1 0 0 0 0-2zm0 4a1 1 0 0 0 0 2 1 1 0 0 0 0-2z" fill="#FFF"/></svg><svg width="22" height="22" viewBox="-4 -4 22 22" id="calendar-black" x="618"><path d="M0 8h2V6H0v2zm3 0h2V6H3v2zm3 0h2V6H6v2zm3 0h2V6H9v2zm3 0h2V6h-2v2zM0 11h2V9H0v2zm3 0h2V9H3v2zm3 0h2V9H6v2zm3 0h2V9H9v2zm3 0h2V9h-2v2zM0 14h2v-2H0v2zm3 0h2v-2H3v2zm3 0h2v-2H6v2zm3 0h2v-2H9v2zm3-13a1 1 0 0 0-2 0H4a1 1 0 0 0-2 0H0v4h14V1h-2z"/></svg><svg width="22" height="22" viewBox="-4 -4 22 22" id="calendar-white" x="640"><path fill="#FFF" d="M0 8h2V6H0v2zm3 0h2V6H3v2zm3 0h2V6H6v2zm3 0h2V6H9v2zm3 0h2V6h-2v2zM0 11h2V9H0v2zm3 0h2V9H3v2zm3 0h2V9H6v2zm3 0h2V9H9v2zm3 0h2V9h-2v2zM0 14h2v-2H0v2zm3 0h2v-2H3v2zm3 0h2v-2H6v2zm3 0h2v-2H9v2zm3-13a1 1 0 0 0-2 0H4a1 1 0 0 0-2 0H0v4h14V1h-2z"/></svg><svg width="22" height="22" viewBox="-4 -4 22 22" id="camera-black" x="662"><path d="M12 2.5H9.908c-.206-.58-.756-1-1.408-1h-3c-.652 0-1.202.42-1.408 1H2a2 2 0 0 0-2 2v6a2 2 0 0 0 2 2h10a2 2 0 0 0 2-2v-6a2 2 0 0 0-2-2zm-5 8a3 3 0 1 1 0-6 3 3 0 0 1 0 6zm0-5a2 2 0 1 0 0 4 2 2 0 0 0 0-4z"/></svg><svg width="22" height="22" viewBox="-4 -4 22 22" id="camera-white" x="684"><path d="M12 2.5H9.908c-.206-.58-.756-1-1.408-1h-3c-.652 0-1.202.42-1.408 1H2a2 2 0 0 0-2 2v6a2 2 0 0 0 2 2h10a2 2 0 0 0 2-2v-6a2 2 0 0 0-2-2zm-5 8a3 3 0 1 1 0-6 3 3 0 0 1 0 6zm0-5a2 2 0 1 0 0 4 2 2 0 0 0 0-4z" fill="#FFF"/></svg><svg width="22" height="22" viewBox="-4 -4 22 22" id="carat-d-black" x="706"><path d="M11.95 3.404L7 8.354l-4.95-4.95-2.12 2.12L7 12.597l7.07-7.07z"/></svg><svg width="22" height="22" viewBox="-4 -4 22 22" id="carat-d-white" x="728"><path fill="#FFF" d="M11.95 3.404L7 8.354l-4.95-4.95-2.12 2.12L7 12.597l7.07-7.07z"/></svg><svg width="22" height="22" viewBox="-4 -4 22 22" id="carat-l-black" x="750"><path d="M10.596 11.95L5.646 7l4.95-4.95-2.12-2.12L1.403 7l7.07 7.07z"/></svg><svg width="22" height="22" viewBox="-4 -4 22 22" id="carat-l-white" x="772"><path fill="#FFF" d="M10.596 11.95L5.646 7l4.95-4.95-2.12-2.12L1.403 7l7.07 7.07z"/></svg><svg width="22" height="22" viewBox="-4 -4 22 22" id="carat-r-black" x="794"><path d="M3.404 2.05L8.354 7l-4.95 4.95 2.12 2.12L12.597 7 5.526-.07z"/></svg><svg width="22" height="22" viewBox="-4 -4 22 22" id="carat-r-white" x="816"><path fill="#FFF" d="M3.404 2.05L8.354 7l-4.95 4.95 2.12 2.12L12.597 7 5.526-.07z"/></svg><svg width="22" height="22" viewBox="-4 -4 22 22" id="carat-u-black" x="838"><path d="M2.05 10.596L7 5.646l4.95 4.95 2.12-2.12L7 1.403l-7.07 7.07z"/></svg><svg width="22" height="22" viewBox="-4 -4 22 22" id="carat-u-white" x="860"><path fill="#FFF" d="M2.05 10.596L7 5.646l4.95 4.95 2.12-2.12L7 1.403l-7.07 7.07z"/></svg><svg width="22" height="22" viewBox="-4 -4 22 22" id="check-black" x="882"><path d="M14 4l-3-3-5.997 5.997L3 5 0 8l4.966 5 .017-.018L5 13z"/></svg><svg width="22" height="22" viewBox="-4 -4 22 22" id="check-white" x="904"><path fill="#FFF" d="M14 4l-3-3-5.997 5.997L3 5 0 8l4.966 5 .017-.018L5 13z"/></svg><svg width="22" height="22" viewBox="-4 -4 22 22" id="clock-black" x="926"><path d="M7 0a7 7 0 1 0 0 14A7 7 0 0 0 7 0zm0 12c-2.762 0-5-2.238-5-5s2.238-5 5-5 5 2.238 5 5-2.238 5-5 5zm2-6H8V4a1 1 0 0 0-2 0v3a1 1 0 0 0 1 1h2a1 1 0 0 0 0-2z"/></svg><svg width="22" height="22" viewBox="-4 -4 22 22" id="clock-white" x="948"><path fill="#FFF" d="M7 0a7 7 0 1 0 0 14A7 7 0 0 0 7 0zm0 12c-2.762 0-5-2.238-5-5s2.238-5 5-5 5 2.238 5 5-2.238 5-5 5zm2-6H8V4a1 1 0 0 0-2 0v3a1 1 0 0 0 1 1h2a1 1 0 0 0 0-2z"/></svg><svg width="22" height="22" viewBox="-4 -4 22 22" id="cloud-black" x="970"><path d="M14 9.5c0-.793-.465-1.473-1.134-1.795C12.95 7.485 13 7.25 13 7a2 2 0 0 0-2-2c-.158 0-.31.023-.457.058C9.816 3.548 8.286 2.5 6.5 2.5c-2.33 0-4.224 1.777-4.454 4.046A2.496 2.496 0 0 0 0 9a2.5 2.5 0 0 0 2.5 2.5h10v-.07c.86-.224 1.5-.998 1.5-1.93z"/></svg><svg width="22" height="22" viewBox="-4 -4 22 22" id="cloud-white" x="992"><path d="M14 9.5c0-.793-.465-1.473-1.134-1.795C12.95 7.485 13 7.25 13 7a2 2 0 0 0-2-2c-.158 0-.31.023-.457.058C9.816 3.548 8.286 2.5 6.5 2.5c-2.33 0-4.224 1.777-4.454 4.046A2.496 2.496 0 0 0 0 9a2.5 2.5 0 0 0 2.5 2.5h10v-.07c.86-.224 1.5-.998 1.5-1.93z" fill="#FFF"/></svg><svg width="22" height="22" viewBox="-4 -4 22 22" id="comment-black" x="1014"><path d="M12 0H2a2 2 0 0 0-2 2v7a2 2 0 0 0 2 2h1v3l3-3h6a2 2 0 0 0 2-2V2a2 2 0 0 0-2-2z"/></svg><svg width="22" height="22" viewBox="-4 -4 22 22" id="comment-white" x="1036"><path fill="#FFF" d="M12 0H2a2 2 0 0 0-2 2v7a2 2 0 0 0 2 2h1v3l3-3h6a2 2 0 0 0 2-2V2a2 2 0 0 0-2-2z"/></svg><svg width="22" height="22" viewBox="-4 -4 22 22" id="delete-black" x="1058"><path d="M14 3l-3-3-4 4-4-4-3 3 4 4-4 4 3 3 4-4 4 4 3-3-4-4z"/></svg><svg width="22" height="22" viewBox="-4 -4 22 22" id="delete-white" x="1080"><path fill="#FFF" d="M14 3l-3-3-4 4-4-4-3 3 4 4-4 4 3 3 4-4 4 4 3-3-4-4z"/></svg><svg width="22" height="22" viewBox="-4 -4 22 22" id="edit-black" x="1102"><path d="M1 10l-1 4 4-1 7-7-3-3-7 7zM11 0L9 2l3 3 2-2-3-3z"/></svg><svg width="22" height="22" viewBox="-4 -4 22 22" id="edit-white" x="1124"><path fill="#FFF" d="M1 10l-1 4 4-1 7-7-3-3-7 7zM11 0L9 2l3 3 2-2-3-3z"/></svg><svg width="22" height="22" viewBox="-4 -4 22 22" id="eye-black" x="1146"><path d="M7 2C3 2 0 7 0 7s3 5 7 5 7-5 7-5-3-5-7-5zm0 8a3 3 0 1 1 0-6 3 3 0 0 1 0 6zm0-4a1 1 0 1 0 0 2 1 1 0 0 0 0-2z"/></svg><svg width="22" height="22" viewBox="-4 -4 22 22" id="eye-white" x="1168"><path d="M7 2C3 2 0 7 0 7s3 5 7 5 7-5 7-5-3-5-7-5zm0 8a3 3 0 1 1 0-6 3 3 0 0 1 0 6zm0-4a1 1 0 1 0 0 2 1 1 0 0 0 0-2z" fill="#FFF"/></svg><svg width="22" height="22" viewBox="-4 -4 22 22" id="forbidden-black" x="1190"><path d="M12.6 11.187A6.96 6.96 0 0 0 14 7a7 7 0 0 0-7-7 6.96 6.96 0 0 0-4.187 1.4l-.056-.057-.704.705-.005.005-.705.705.056.056A6.956 6.956 0 0 0 0 7a7 7 0 0 0 7 7 6.96 6.96 0 0 0 4.187-1.4l.056.058.705-.705.005-.005.705-.705-.057-.056zM7 2a5 5 0 0 1 5 5c0 1.02-.308 1.964-.832 2.754L4.246 2.832A4.964 4.964 0 0 1 7 2zm0 10a5 5 0 0 1-5-5c0-1.02.308-1.964.832-2.754l6.922 6.922A4.964 4.964 0 0 1 7 12z"/></svg><svg width="22" height="22" viewBox="-4 -4 22 22" id="forbidden-white" x="1212"><path fill="#FFF" d="M12.6 11.187A6.96 6.96 0 0 0 14 7a7 7 0 0 0-7-7 6.96 6.96 0 0 0-4.187 1.4l-.056-.057-.704.705-.005.005-.705.705.056.056A6.956 6.956 0 0 0 0 7a7 7 0 0 0 7 7 6.96 6.96 0 0 0 4.187-1.4l.056.058.705-.705.005-.005.705-.705-.057-.056zM7 2a5 5 0 0 1 5 5c0 1.02-.308 1.964-.832 2.754L4.246 2.832A4.964 4.964 0 0 1 7 2zm0 10a5 5 0 0 1-5-5c0-1.02.308-1.964.832-2.754l6.922 6.922A4.964 4.964 0 0 1 7 12z"/></svg><svg width="22" height="22" viewBox="-4 -4 22 22" id="forward-black" x="1234"><path d="M13 4L9 0v3C6 3 1 4 1 8c0 5 7 6 7 6v-2s-5-1-5-4 6-3 6-3v3l4-4z"/></svg><svg width="22" height="22" viewBox="-4 -4 22 22" id="forward-white" x="1256"><path d="M13 4L9 0v3C6 3 1 4 1 8c0 5 7 6 7 6v-2s-5-1-5-4 6-3 6-3v3l4-4z" fill="#FFF"/></svg><svg width="22" height="22" viewBox="-4 -4 22 22" id="gear-black" x="1278"><path d="M13.62 5.904l-1.035-.26a.5.5 0 0 1-.355-.33 5.522 5.522 0 0 0-.34-.82.498.498 0 0 1 .018-.487l.55-.915a.498.498 0 0 0-.076-.61l-.862-.863a.5.5 0 0 0-.61-.076l-.917.55a.505.505 0 0 1-.487.015 5.46 5.46 0 0 0-.82-.34.498.498 0 0 1-.332-.354L8.094.38A.5.5 0 0 0 7.61 0H6.39a.5.5 0 0 0-.484.38l-.26 1.035a.5.5 0 0 1-.333.355c-.284.092-.56.206-.82.34a.503.503 0 0 1-.486-.017l-.915-.55a.5.5 0 0 0-.61.076l-.863.86a.502.502 0 0 0-.076.613l.55.914c.088.148.094.332.016.486-.135.262-.25.536-.34.82a.503.503 0 0 1-.354.333l-1.037.26A.5.5 0 0 0 0 6.39v1.22a.5.5 0 0 0 .38.485l1.035.26c.167.04.302.166.355.332.092.284.205.56.34.82a.503.503 0 0 1-.017.486l-.55.915a.5.5 0 0 0 .076.61l.86.862a.498.498 0 0 0 .61.075l.916-.55a.503.503 0 0 1 .486-.016c.262.134.536.247.82.34.165.052.29.186.332.353l.26 1.036c.056.224.256.38.486.38h1.22a.5.5 0 0 0 .485-.38l.26-1.035a.5.5 0 0 1 .332-.354 5.42 5.42 0 0 0 .82-.34.503.503 0 0 1 .486.018l.914.55a.5.5 0 0 0 .61-.075l.863-.863a.5.5 0 0 0 .075-.61l-.55-.916a.5.5 0 0 1-.016-.485c.133-.264.247-.537.338-.82a.502.502 0 0 1 .355-.334l1.036-.26A.504.504 0 0 0 14 7.61V6.39a.5.5 0 0 0-.38-.486zM7 10a3 3 0 1 1 0-6 3 3 0 0 1 0 6z"/></svg><svg width="22" height="22" viewBox="-4 -4 22 22" id="gear-white" x="1300"><path fill="#FFF" d="M13.62 5.904l-1.035-.26a.5.5 0 0 1-.355-.33 5.522 5.522 0 0 0-.34-.82.498.498 0 0 1 .018-.487l.55-.915a.498.498 0 0 0-.076-.61l-.862-.863a.5.5 0 0 0-.61-.076l-.917.55a.505.505 0 0 1-.487.015 5.46 5.46 0 0 0-.82-.34.498.498 0 0 1-.332-.354L8.094.38A.5.5 0 0 0 7.61 0H6.39a.5.5 0 0 0-.484.38l-.26 1.035a.5.5 0 0 1-.333.355c-.284.092-.56.206-.82.34a.503.503 0 0 1-.486-.017l-.915-.55a.5.5 0 0 0-.61.076l-.863.86a.502.502 0 0 0-.076.613l.55.914c.088.148.094.332.016.486-.135.262-.25.536-.34.82a.503.503 0 0 1-.354.333l-1.037.26A.5.5 0 0 0 0 6.39v1.22a.5.5 0 0 0 .38.485l1.035.26c.167.04.302.166.355.332.092.284.205.56.34.82a.503.503 0 0 1-.017.486l-.55.915a.5.5 0 0 0 .076.61l.86.862a.498.498 0 0 0 .61.075l.916-.55a.503.503 0 0 1 .486-.016c.262.134.536.247.82.34.165.052.29.186.332.353l.26 1.036c.056.224.256.38.486.38h1.22a.5.5 0 0 0 .485-.38l.26-1.035a.5.5 0 0 1 .332-.354 5.42 5.42 0 0 0 .82-.34.503.503 0 0 1 .486.018l.914.55a.5.5 0 0 0 .61-.075l.863-.863a.5.5 0 0 0 .075-.61l-.55-.916a.5.5 0 0 1-.016-.485c.133-.264.247-.537.338-.82a.502.502 0 0 1 .355-.334l1.036-.26A.504.504 0 0 0 14 7.61V6.39a.5.5 0 0 0-.38-.486zM7 10a3 3 0 1 1 0-6 3 3 0 0 1 0 6z"/></svg><svg width="22" height="22" viewBox="-4 -4 22 22" id="grid-black" x="1322"><path d="M3 0H1a1 1 0 0 0-1 1v2a1 1 0 0 0 1 1h2a1 1 0 0 0 1-1V1a1 1 0 0 0-1-1zm5 0H6a1 1 0 0 0-1 1v2a1 1 0 0 0 1 1h2a1 1 0 0 0 1-1V1a1 1 0 0 0-1-1zm5 0h-2a1 1 0 0 0-1 1v2a1 1 0 0 0 1 1h2a1 1 0 0 0 1-1V1a1 1 0 0 0-1-1zM3 5H1a1 1 0 0 0-1 1v2a1 1 0 0 0 1 1h2a1 1 0 0 0 1-1V6a1 1 0 0 0-1-1zm5 0H6a1 1 0 0 0-1 1v2a1 1 0 0 0 1 1h2a1 1 0 0 0 1-1V6a1 1 0 0 0-1-1zm5 0h-2a1 1 0 0 0-1 1v2a1 1 0 0 0 1 1h2a1 1 0 0 0 1-1V6a1 1 0 0 0-1-1zM3 10H1a1 1 0 0 0-1 1v2a1 1 0 0 0 1 1h2a1 1 0 0 0 1-1v-2a1 1 0 0 0-1-1zm5 0H6a1 1 0 0 0-1 1v2a1 1 0 0 0 1 1h2a1 1 0 0 0 1-1v-2a1 1 0 0 0-1-1zm5 0h-2a1 1 0 0 0-1 1v2a1 1 0 0 0 1 1h2a1 1 0 0 0 1-1v-2a1 1 0 0 0-1-1z"/></svg><svg width="22" height="22" viewBox="-4 -4 22 22" id="grid-white" x="1344"><path fill="#FFF" d="M3 0H1a1 1 0 0 0-1 1v2a1 1 0 0 0 1 1h2a1 1 0 0 0 1-1V1a1 1 0 0 0-1-1zm5 0H6a1 1 0 0 0-1 1v2a1 1 0 0 0 1 1h2a1 1 0 0 0 1-1V1a1 1 0 0 0-1-1zm5 0h-2a1 1 0 0 0-1 1v2a1 1 0 0 0 1 1h2a1 1 0 0 0 1-1V1a1 1 0 0 0-1-1zM3 5H1a1 1 0 0 0-1 1v2a1 1 0 0 0 1 1h2a1 1 0 0 0 1-1V6a1 1 0 0 0-1-1zm5 0H6a1 1 0 0 0-1 1v2a1 1 0 0 0 1 1h2a1 1 0 0 0 1-1V6a1 1 0 0 0-1-1zm5 0h-2a1 1 0 0 0-1 1v2a1 1 0 0 0 1 1h2a1 1 0 0 0 1-1V6a1 1 0 0 0-1-1zM3 10H1a1 1 0 0 0-1 1v2a1 1 0 0 0 1 1h2a1 1 0 0 0 1-1v-2a1 1 0 0 0-1-1zm5 0H6a1 1 0 0 0-1 1v2a1 1 0 0 0 1 1h2a1 1 0 0 0 1-1v-2a1 1 0 0 0-1-1zm5 0h-2a1 1 0 0 0-1 1v2a1 1 0 0 0 1 1h2a1 1 0 0 0 1-1v-2a1 1 0 0 0-1-1z"/></svg><svg width="22" height="22" viewBox="-4 -4 22 22" id="heart-black" x="1366"><path d="M7 1.958c-2-3-7-2.128-7 1.872 0 3 4 7 4 7s2.417 2.48 3 3c.583-.52 3-3 3-3s4-4 4-7c0-4-5-4.872-7-1.872z"/></svg><svg width="22" height="22" viewBox="-4 -4 22 22" id="heart-white" x="1388"><path d="M7 1.872c-2-3-7-2-7 2 0 3 4 7 4 7s2.417 2.48 3 3c.583-.52 3-3 3-3s4-4 4-7c0-4-5-5-7-2z" fill="#FFF"/></svg><svg width="22" height="22" viewBox="-4 -4 22 22" id="home-black" x="1410"><path d="M7 0L0 7h2v7h3V9h4v5h3V7h2z"/></svg><svg width="22" height="22" viewBox="-4 -4 22 22" id="home-white" x="1432"><path fill="#FFF" d="M7 0L0 7h2v7h3V9h4v5h3V7h2z"/></svg><svg width="22" height="22" viewBox="-4 -4 22 22" id="info-black" x="1454"><path d="M7 0a7 7 0 1 0 0 14A7 7 0 0 0 7 0zm0 2a1 1 0 1 1 0 2 1 1 0 0 1 0-2zm2 9H5v-1h1V6H5V5h3v5h1v1z"/></svg><svg width="22" height="22" viewBox="-4 -4 22 22" id="info-white" x="1476"><path fill="#FFF" d="M7 0a7 7 0 1 0 0 14A7 7 0 0 0 7 0zm0 2a1 1 0 1 1 0 2 1 1 0 0 1 0-2zm2 9H5v-1h1V6H5V5h3v5h1v1z"/></svg><svg width="22" height="22" viewBox="-4 -4 22 22" id="location-black" x="1498"><path d="M7 0a4 4 0 0 0-4 4c0 2 4 10 4 10s4-8 4-10a4 4 0 0 0-4-4zm0 6a2 2 0 1 1 0-4 2 2 0 0 1 0 4z"/></svg><svg width="22" height="22" viewBox="-4 -4 22 22" id="location-white" x="1520"><path d="M7 0a4 4 0 0 0-4 4c0 2 4 10 4 10s4-8 4-10a4 4 0 0 0-4-4zm0 6a2 2 0 1 1 0-4 2 2 0 0 1 0 4z" fill="#FFF"/></svg><svg width="22" height="22" viewBox="-4 -4 22 22" id="lock-black" x="1542"><path d="M12 6V5A5 5 0 0 0 2 5v1H1v8h12V6h-1zM7.5 9.848V12h-1V9.848A.99.99 0 0 1 6 9a1 1 0 0 1 2 0 .99.99 0 0 1-.5.848zM10 6H4V5a3 3 0 0 1 6 0v1z"/></svg><svg width="22" height="22" viewBox="-4 -4 22 22" id="lock-white" x="1564"><path d="M12 6V5A5 5 0 0 0 2 5v1H1v8h12V6h-1zM7.5 9.848V12h-1V9.848A.99.99 0 0 1 6 9a1 1 0 0 1 2 0 .99.99 0 0 1-.5.848zM10 6H4V5a3 3 0 0 1 6 0v1z" fill="#FFF"/></svg><svg width="22" height="22" viewBox="-4 -4 22 22" id="mail-black" x="1586"><path d="M0 3.75V12h14V3.75L7 9 0 3.75zM14 2H0l7 5 7-5z"/></svg><svg width="22" height="22" viewBox="-4 -4 22 22" id="mail-white" x="1608"><path d="M0 3.75V12h14V3.75L7 9 0 3.75zM14 2H0l7 5 7-5z" fill="#FFF"/></svg><svg width="22" height="22" viewBox="-4 -4 22 22" id="minus-black" x="1630"><path d="M0 5h14v4H0z"/></svg><svg width="22" height="22" viewBox="-4 -4 22 22" id="minus-white" x="1652"><path fill="#FFF" d="M0 5h14v4H0z"/></svg><svg width="22" height="22" viewBox="-4 -4 22 22" id="navigation-black" x="1674"><path d="M13 1L0 6l7 1 1 7z"/></svg><svg width="22" height="22" viewBox="-4 -4 22 22" id="navigation-white" x="1696"><path fill="#FFF" d="M13 1L0 6l7 1 1 7z"/></svg><svg width="22" height="22" viewBox="-4 -4 22 22" id="phone-black" x="1718"><path d="M6.95 9.182a17.183 17.183 0 0 1-2.443-2.446c-.544-.673-1.024-1.38-.528-1.878L.496 1.378c-.508.634-1.633 3.654 3.188 8.598 5.08 5.21 8.356 4.097 8.92 3.51L9.21 10.09c-.476.473-1.087.05-2.26-.906zm6.88 2.33v-.004L11.18 8.86a.53.53 0 0 0-.753.003l-.962.96 3.402 3.407s.963-.96.96-.96l.003-.003a.528.528 0 0 0 0-.755zM5.202 3.636v-.002a.533.533 0 0 0 0-.758v-.003L2.475.147a.532.532 0 0 0-.753 0l-.96.966L4.24 4.595s.962-.958.962-.96z"/></svg><svg width="22" height="22" viewBox="-4.01 -3.99 22 22" id="phone-white" x="1740"><path d="M6.94 9.19a17.12 17.12 0 0 1-2.443-2.446c-.544-.673-1.024-1.38-.528-1.878L.486 1.386C-.02 2.02-1.146 5.04 3.675 9.984c5.08 5.21 8.356 4.097 8.92 3.51l-3.396-3.4c-.475.474-1.087.052-2.26-.905zm6.88 2.33v-.005l-2.65-2.647a.532.532 0 0 0-.753.002l-.962.96 3.403 3.408s.962-.96.96-.96l.003-.002a.53.53 0 0 0 0-.757zM5.192 3.643v-.002a.533.533 0 0 0 0-.758V2.88L2.465.156a.532.532 0 0 0-.753 0l-.96.966L4.23 4.604s.962-.958.962-.96z" fill="#FFF"/></svg><svg width="22" height="22" viewBox="-4 -4 22 22" id="plus-black" x="1762"><path d="M14 5H9V0H5v5H0v4h5v5h4V9h5z"/></svg><svg width="22" height="22" viewBox="-4 -4 22 22" id="plus-white" x="1784"><path fill="#FFF" d="M14 5H9V0H5v5H0v4h5v5h4V9h5z"/></svg><svg width="22" height="22" viewBox="-4 -4 22 22" id="power-black" x="1806"><path d="M11.243 2.408a.983.983 0 0 0-1.415 0 1.05 1.05 0 0 0 0 1.455c.756.78 1.172 1.812 1.172 2.91s-.416 2.133-1.172 2.91c-1.512 1.558-4.145 1.558-5.656 0A4.15 4.15 0 0 1 3 6.773c0-1.1.416-2.133 1.172-2.91.39-.4.39-1.054 0-1.455a.983.983 0 0 0-1.415 0A6.226 6.226 0 0 0 1 6.773c0 1.647.624 3.2 1.757 4.365A5.88 5.88 0 0 0 7 12.948c1.604 0 3.11-.646 4.243-1.812A6.21 6.21 0 0 0 13 6.773c0-1.648-.624-3.2-1.757-4.365zM7 8.053c.553 0 1-.445 1-1v-6a1 1 0 0 0-2 0v6a1 1 0 0 0 1 1z"/></svg><svg width="22" height="22" viewBox="-4 -4 22 22" id="power-white" x="1828"><path d="M11.243 2.408a.983.983 0 0 0-1.415 0 1.05 1.05 0 0 0 0 1.455c.756.78 1.172 1.812 1.172 2.91s-.416 2.133-1.172 2.91c-1.512 1.558-4.145 1.558-5.656 0A4.15 4.15 0 0 1 3 6.773c0-1.1.416-2.133 1.172-2.91.39-.4.39-1.054 0-1.455a.983.983 0 0 0-1.415 0A6.226 6.226 0 0 0 1 6.773c0 1.647.624 3.2 1.757 4.365A5.88 5.88 0 0 0 7 12.948c1.604 0 3.11-.646 4.243-1.812A6.21 6.21 0 0 0 13 6.773c0-1.648-.624-3.2-1.757-4.365zM7 8.053c.553 0 1-.445 1-1v-6a1 1 0 0 0-2 0v6a1 1 0 0 0 1 1z" fill="#FFF"/></svg><svg width="22" height="22" viewBox="-4 -4 22 22" id="recycle-black" x="1850"><path d="M3 7h1L2 4 0 7h1a6 6 0 0 0 6 6c.702 0 1.374-.127 2-.35v-2.205A3.955 3.955 0 0 1 7 11a4 4 0 0 1-4-4zm10 0c0-3.313-2.688-6-6-6a5.97 5.97 0 0 0-2 .35v2.205A3.955 3.955 0 0 1 7 3a4 4 0 0 1 4 4h-1l2 3 2-3h-1z"/></svg><svg width="22" height="22" viewBox="-4 -4 22 22" id="recycle-white" x="1872"><path d="M3 7h1L2 4 0 7h1a6 6 0 0 0 6 6c.702 0 1.374-.127 2-.35v-2.205A3.955 3.955 0 0 1 7 11a4 4 0 0 1-4-4zm10 0c0-3.313-2.688-6-6-6a5.97 5.97 0 0 0-2 .35v2.205A3.955 3.955 0 0 1 7 3a4 4 0 0 1 4 4h-1l2 3 2-3h-1z" fill="#FFF"/></svg><svg width="22" height="22" viewBox="-4 -4 22 22" id="refresh-black" x="1894"><path d="M14 6V0l-2.06 2.06A6.916 6.916 0 0 0 10.5.94a7 7 0 1 0 2.563 9.56l-1.732-1a5 5 0 0 1-6.83 1.83A5 5 0 0 1 2.67 4.5 5 5 0 0 1 9.5 2.67c.39.226.72.507 1.02.81L8 6h6z"/></svg><svg width="22" height="22" viewBox="-4 -4 22 22" id="refresh-white" x="1916"><path fill="#FFF" d="M14 6V0l-2.06 2.06A6.916 6.916 0 0 0 10.5.94a7 7 0 1 0 2.563 9.56l-1.732-1a5 5 0 0 1-6.83 1.83A5 5 0 0 1 2.67 4.5 5 5 0 0 1 9.5 2.67c.39.226.72.507 1.02.81L8 6h6z"/></svg><svg width="22" height="22" viewBox="-4 -4 22 22" id="search-black" x="1938"><path d="M10.17 8.766c.618-.888.98-1.964.98-3.126a5.5 5.5 0 1 0-5.5 5.5 5.455 5.455 0 0 0 3.104-.962l3.684 3.683 1.414-1.413-3.68-3.68zm-4.52.374a3.5 3.5 0 1 1 0-7 3.5 3.5 0 0 1 0 7z"/></svg><svg width="22" height="22" viewBox="-4 -4 22 22" id="search-white" x="1960"><path d="M10.17 8.766c.618-.888.98-1.964.98-3.126a5.5 5.5 0 1 0-5.5 5.5 5.455 5.455 0 0 0 3.104-.962l3.684 3.683 1.414-1.413-3.68-3.68zm-4.52.374a3.5 3.5 0 1 1 0-7 3.5 3.5 0 0 1 0 7z" fill="#FFF"/></svg><svg width="22" height="22" viewBox="-4 -4 22 22" id="shop-black" x="1982"><path d="M10 4V3a3 3 0 0 0-6 0v1H1v10h12V4h-3zM4.5 6a.5.5 0 1 1 0-1 .5.5 0 0 1 0 1zM5 3a2 2 0 0 1 4 0v1H5V3zm4.5 3a.5.5 0 1 1 .002-1.002A.5.5 0 0 1 9.5 6z"/></svg><svg width="22" height="22" viewBox="-4 -4 22 22" id="shop-white" x="2004"><path d="M10 4V3a3 3 0 0 0-6 0v1H1v10h12V4h-3zM4.5 6a.5.5 0 1 1 0-1 .5.5 0 0 1 0 1zM5 3a2 2 0 0 1 4 0v1H5V3zm4.5 3a.5.5 0 1 1 .002-1.002A.5.5 0 0 1 9.5 6z" fill="#FFF"/></svg><svg width="22" height="22" viewBox="-4 -4 22 22" id="star-black" x="2026"><path d="M14 5H9L7 0 5 5H0l4 3-1.375 5L7 10l4.375 3L10 8z"/></svg><svg width="22" height="22" viewBox="-4 -4 22 22" id="star-white" x="2048"><path fill="#FFF" d="M14 5H9L7 0 5 5H0l4 3-1.375 5L7 10l4.375 3L10 8z"/></svg><svg width="22" height="22" viewBox="-4 -4 22 22" id="tag-black" x="2070"><path d="M5 0H0v5l9 9 5-5-9-9zM3 4a1 1 0 0 1 0-2 1 1 0 0 1 0 2z"/></svg><svg width="22" height="22" viewBox="-4 -4 22 22" id="tag-white" x="2092"><path fill="#FFF" d="M5 0H0v5l9 9 5-5-9-9zM3 4a1 1 0 0 1 0-2 1 1 0 0 1 0 2z"/></svg><svg width="22" height="22" viewBox="-4 -4 22 22" id="user-black" x="2114"><path d="M8.85 10.1c-.18-.398-.2-.762-.152-1.103.685-.507 1.04-1.376 1.193-2.532.603-.11.61-.498.61-.965 0-.437-.008-.804-.502-.94L10 4.5c0-2.103-1-4-2-4 0 0-.5-.5-1.5-.5C5 0 4 1.877 4 4.5c0 .02 0 .04.002.06-.494.136-.502.503-.502.94 0 .467.007.855.61.965.152 1.156.507 2.025 1.193 2.532.047.34.026.704-.153 1.104C1.503 10.504 0 12 0 12v2h14v-2s-1.503-1.497-5.15-1.9z"/></svg><svg width="22" height="22" viewBox="-4 -4 22 22" id="user-white" x="2136"><path fill="#FFF" d="M8.85 10.1c-.18-.398-.2-.762-.152-1.103.685-.507 1.04-1.376 1.193-2.532.603-.11.61-.498.61-.965 0-.437-.008-.804-.502-.94L10 4.5c0-2.103-1-4-2-4 0 0-.5-.5-1.5-.5C5 0 4 1.877 4 4.5c0 .02 0 .04.002.06-.494.136-.502.503-.502.94 0 .467.007.855.61.965.152 1.156.507 2.025 1.193 2.532.047.34.026.704-.153 1.104C1.503 10.504 0 12 0 12v2h14v-2s-1.503-1.497-5.15-1.9z"/></svg><svg width="22" height="22" viewBox="-4 -6 22 22" id="video-black" x="2158"><path d="M8 0H2a2 2 0 0 0-2 2v6a2 2 0 0 0 2 2h6a2 2 0 0 0 2-2V2a2 2 0 0 0-2-2zm2 5l4 4V1l-4 4z"/></svg><svg width="22" height="22" viewBox="-4 -6 22 22" id="video-white" x="2180"><path d="M8 0H2a2 2 0 0 0-2 2v6a2 2 0 0 0 2 2h6a2 2 0 0 0 2-2V2a2 2 0 0 0-2-2zm2 5l4 4V1l-4 4z" fill="#FFF"/></svg></svg>